# Blender v2.83.0 OBJ File: ''
# www.blender.org
mtllib Pillar.mtl
o Cube_Cube.001
v -0.500000 -0.500000 0.500000
v -0.500000 -0.500000 -0.500000
v 0.500000 -0.500000 0.500000
v 0.500000 -0.500000 -0.500000
v -0.333867 0.489376 0.333867
v -0.354016 0.474154 0.354016
v -0.327413 0.492496 0.327413
v -0.421989 0.407711 0.421989
v -0.404669 0.425971 0.404669
v -0.440882 0.384800 0.440882
v -0.456866 0.362672 0.456866
v -0.327413 0.492496 -0.327413
v -0.333867 0.489376 -0.333867
v -0.354016 0.474154 -0.354016
v -0.421989 0.407711 -0.421989
v -0.404669 0.425971 -0.404669
v -0.440882 0.384800 -0.440882
v -0.456866 0.362672 -0.456866
v 0.327413 0.492496 0.327413
v 0.333867 0.489376 0.333867
v 0.354016 0.474154 0.354016
v 0.404669 0.425971 0.404669
v 0.421989 0.407711 0.421989
v 0.440882 0.384800 0.440882
v 0.456866 0.362672 0.456866
v 0.327413 0.492496 -0.327413
v 0.333867 0.489376 -0.333867
v 0.354016 0.474154 -0.354016
v 0.404669 0.425971 -0.404669
v 0.421989 0.407711 -0.421989
v 0.440882 0.384800 -0.440882
v 0.456866 0.362672 -0.456866
v -0.312500 0.495509 0.312500
v -0.312500 0.495509 -0.312500
v 0.312500 0.495509 -0.312500
v 0.312500 0.495509 0.312500
v -0.275285 0.491756 0.275285
v -0.305000 0.495509 0.305000
v -0.260173 0.478499 0.260173
v -0.256969 0.457861 0.256969
v -0.256969 0.457861 -0.256969
v -0.260173 0.478499 -0.260173
v -0.275285 0.491756 -0.275285
v -0.305000 0.495509 -0.305000
v 0.256969 0.457861 0.256969
v 0.260173 0.478499 0.260173
v 0.275285 0.491756 0.275285
v 0.305000 0.495509 0.305000
v 0.256969 0.457861 -0.256969
v 0.260173 0.478499 -0.260173
v 0.275285 0.491756 -0.275285
v 0.305000 0.495509 -0.305000
v -0.226572 0.400000 0.226572
v -0.221983 0.407108 0.221983
v -0.221983 0.407108 -0.221983
v -0.226572 0.400000 -0.226572
v 0.221983 0.407108 -0.221983
v 0.226572 0.400000 -0.226572
v 0.221983 0.407108 0.221983
v 0.226572 0.400000 0.226572
v -0.236572 0.400000 0.236572
v -0.250351 0.407436 0.250351
v -0.236572 0.400000 -0.236572
v -0.250351 0.407436 -0.250351
v 0.236572 0.400000 -0.236572
v 0.250351 0.407436 -0.250351
v 0.236572 0.400000 0.236572
v 0.250351 0.407436 0.250351
v -0.195000 0.466780 0.194999
v -0.205970 0.457142 0.205970
v -0.188786 0.471315 0.188786
v -0.181505 0.475000 0.181505
v -0.181505 0.475000 -0.181505
v -0.188786 0.471315 -0.188786
v -0.194999 0.466780 -0.195000
v -0.205970 0.457142 -0.205970
v 0.181505 0.475000 -0.181505
v 0.188786 0.471315 -0.188786
v 0.195000 0.466780 -0.194999
v 0.205970 0.457142 -0.205970
v -0.000000 0.500000 0.000000
v 0.181505 0.475000 0.181505
v 0.188786 0.471315 0.188786
v 0.194999 0.466780 0.195000
v 0.205970 0.457142 0.205970
v -0.454447 -0.203339 0.454447
v -0.456944 -0.253276 0.456944
v 0.456944 -0.253276 0.456944
v 0.454447 -0.203339 0.454447
v -0.471152 0.076957 0.471152
v -0.468655 0.126895 0.468655
v 0.468655 0.126895 0.468655
v 0.471152 0.076957 0.471152
v -0.471152 0.076957 -0.471152
v -0.468655 0.126895 -0.468655
v 0.471152 0.076957 -0.471152
v 0.468655 0.126895 -0.468655
v 0.446216 0.125896 0.446216
v 0.448713 0.075958 0.448713
v -0.448713 0.075958 0.448713
v -0.446216 0.125896 0.446216
v 0.448713 0.075958 -0.448713
v 0.446216 0.125896 -0.446216
v -0.448713 0.075958 -0.448713
v -0.446216 0.125896 -0.446216
v -0.487614 -0.252277 0.487614
v -0.485117 -0.202340 0.485117
v -0.487614 -0.252277 -0.487614
v -0.485117 -0.202340 -0.485117
v 0.485117 -0.202340 0.485117
v 0.487614 -0.252277 0.487614
v 0.487614 -0.252277 -0.487614
v 0.485117 -0.202340 -0.485117
v -0.456944 -0.253276 -0.456944
v -0.454447 -0.203339 -0.454447
v 0.456944 -0.253276 -0.456944
v 0.454447 -0.203339 -0.454447
vt 0.531724 0.500000
vt 0.590668 0.500000
vt 0.590668 0.750000
vt 0.531724 0.750000
vt 0.837101 0.530222
vt 0.662899 0.530222
vt 0.662122 0.527485
vt 0.837877 0.527485
vt 0.125000 0.500000
vt 0.375000 0.500000
vt 0.375000 0.750000
vt 0.125000 0.750000
vt 0.597295 0.742926
vt 0.597295 0.507074
vt 0.605625 0.514253
vt 0.605625 0.735747
vt 0.595215 0.992887
vt 0.595215 0.757113
vt 0.598605 0.764384
vt 0.598605 0.985616
vt 0.653571 0.537899
vt 0.653571 0.712101
vt 0.649829 0.712877
vt 0.649829 0.537123
vt 0.658199 0.729411
vt 0.841801 0.729411
vt 0.855223 0.742812
vt 0.644777 0.742812
vt 0.595215 0.492887
vt 0.595215 0.257113
vt 0.598605 0.264384
vt 0.598605 0.485616
vt 0.854411 0.716801
vt 0.854411 0.533199
vt 0.867812 0.519777
vt 0.867812 0.730223
vt 0.449415 0.000000
vt 0.519239 0.000000
vt 0.519239 0.250000
vt 0.449415 0.250000
vt 0.841801 0.520589
vt 0.658199 0.520589
vt 0.644777 0.507188
vt 0.855223 0.507188
vt 0.639128 0.533199
vt 0.639128 0.716801
vt 0.613681 0.730223
vt 0.613681 0.519777
vt 0.844778 0.712101
vt 0.844778 0.537899
vt 0.847515 0.537123
vt 0.847515 0.712878
vt 0.595215 0.242887
vt 0.595215 0.007113
vt 0.598605 0.014384
vt 0.598605 0.235616
vt 0.640104 0.504792
vt 0.859896 0.504792
vt 0.836806 0.711806
vt 0.836805 0.538194
vt 0.590668 0.250000
vt 0.590668 0.000000
vt 0.870208 0.515104
vt 0.870208 0.734896
vt 0.663194 0.538194
vt 0.663194 0.711806
vt 0.837101 0.719778
vt 0.662899 0.719778
vt 0.662123 0.722515
vt 0.837878 0.722515
vt 0.590668 1.000000
vt 0.859896 0.745208
vt 0.640104 0.745208
vt 0.820858 0.549774
vt 0.679142 0.549774
vt 0.675413 0.546060
vt 0.824587 0.546060
vt 0.665278 0.540278
vt 0.665278 0.709722
vt 0.834722 0.540278
vt 0.822917 0.697917
vt 0.677083 0.697917
vt 0.677083 0.697917
vt 0.822917 0.697917
vt 0.825226 0.695858
vt 0.825226 0.554142
vt 0.828940 0.550413
vt 0.828940 0.699587
vt 0.674774 0.554142
vt 0.674774 0.695858
vt 0.671059 0.699587
vt 0.671059 0.550413
vt 0.834722 0.709722
vt 0.677083 0.552083
vt 0.677083 0.552083
vt 0.822917 0.552083
vt 0.822917 0.552083
vt 0.820858 0.700226
vt 0.679142 0.700226
vt 0.675413 0.703940
vt 0.824587 0.703940
vt 0.687221 0.564821
vt 0.687221 0.685179
vt 0.685661 0.686749
vt 0.685661 0.563251
vt 0.812779 0.685179
vt 0.812779 0.564821
vt 0.814339 0.563251
vt 0.814339 0.686749
vt 0.810179 0.562221
vt 0.689820 0.562221
vt 0.688251 0.560661
vt 0.811749 0.560661
vt 0.815607 0.559393
vt 0.815607 0.690607
vt 0.815607 0.690607
vt 0.815607 0.559393
vt 0.684393 0.559393
vt 0.684393 0.559393
vt 0.684393 0.690607
vt 0.684393 0.690607
vt 0.690536 0.565536
vt 0.750000 0.625000
vt 0.690536 0.684464
vt 0.809464 0.684464
vt 0.809464 0.565536
vt 0.810179 0.687779
vt 0.689821 0.687779
vt 0.688251 0.689339
vt 0.811749 0.689339
vt 0.449415 0.500000
vt 0.519239 0.500000
vt 0.519239 0.750000
vt 0.449415 0.750000
vt 0.519239 1.000000
vt 0.449415 1.000000
vt 0.375000 0.000000
vt 0.436931 0.000000
vt 0.436931 0.250000
vt 0.375000 0.250000
vt 0.436931 0.500000
vt 0.436931 0.750000
vt 0.531724 0.250000
vt 0.531724 1.000000
vt 0.531724 0.000000
vt 0.436931 1.000000
vt 0.375000 1.000000
vt 0.449415 0.750000
vt 0.449415 1.000000
vt 0.436931 1.000000
vt 0.436931 0.750000
vt 0.814698 0.557200
vt 0.685301 0.557200
vt 0.682378 0.554276
vt 0.817622 0.554276
vt 0.682200 0.560302
vt 0.682200 0.689698
vt 0.679276 0.692622
vt 0.679276 0.557378
vt 0.817800 0.689698
vt 0.817800 0.560302
vt 0.820724 0.557378
vt 0.820724 0.692622
vt 0.685302 0.692800
vt 0.814698 0.692800
vt 0.817622 0.695724
vt 0.682378 0.695724
vt 0.519239 0.500000
vt 0.519239 0.750000
vt 0.519239 0.250000
vt 0.531724 0.250000
vt 0.531724 0.000000
vt 0.531724 1.000000
vt 0.531724 0.750000
vt 0.519239 1.000000
vt 0.531724 0.500000
vt 0.519239 0.000000
vt 0.436931 0.500000
vt 0.436931 0.000000
vt 0.436931 0.250000
vt 0.449415 0.500000
vt 0.449415 0.250000
vt 0.449415 0.000000
vn 0.9988 0.0499 0.0000
vn 0.0000 0.9003 -0.4352
vn 0.0000 -1.0000 0.0000
vn 0.7715 0.6362 -0.0000
vn 0.0000 0.6362 0.7715
vn 0.4352 0.9003 0.0000
vn 0.0000 0.7245 0.6892
vn -0.0000 0.6362 -0.7715
vn -0.6892 0.7245 0.0000
vn -0.9988 0.0499 0.0000
vn 0.0000 0.7245 -0.6892
vn 0.6892 0.7245 0.0000
vn -0.4352 0.9003 0.0000
vn -0.7715 0.6362 0.0000
vn -0.6028 0.7979 0.0000
vn 0.7255 0.6882 -0.0000
vn -0.0000 0.6882 -0.7255
vn -0.1981 0.9802 0.0000
vn -0.8106 0.5856 0.0000
vn -0.7255 0.6882 0.0000
vn 0.0000 0.9802 -0.1981
vn 0.0000 0.5856 -0.8106
vn 0.0000 0.7979 -0.6028
vn 0.1981 0.9802 0.0000
vn 0.8106 0.5856 0.0000
vn 0.6028 0.7979 0.0000
vn 0.0000 0.9802 0.1981
vn 0.0000 0.7979 0.6028
vn 0.0000 0.5856 0.8106
vn 0.0000 0.6882 0.7255
vn 0.0000 0.9003 0.4352
vn 0.0000 0.7517 0.6595
vn 0.0000 1.0000 0.0000
vn 0.0000 0.1301 -0.9915
vn 0.6595 0.7517 0.0000
vn -0.6595 0.7517 0.0000
vn -0.9915 0.1301 0.0000
vn 0.0000 0.1301 0.9915
vn 0.9882 0.1534 0.0000
vn 0.1253 0.9921 0.0000
vn 0.0000 0.1534 0.9882
vn 0.0000 0.9921 0.1253
vn -0.9882 0.1534 0.0000
vn -0.1253 0.9921 0.0000
vn 0.0000 0.1534 -0.9882
vn 0.0000 0.9921 -0.1253
vn 0.0000 0.7517 -0.6595
vn 0.5896 0.8077 0.0000
vn 0.9915 0.1301 0.0000
vn -0.5896 0.8077 -0.0000
vn 0.0000 0.8077 -0.5896
vn -0.9524 0.3048 0.0000
vn 0.0000 0.3048 -0.9524
vn 0.9524 0.3048 0.0000
vn 0.0000 0.3048 0.9524
vn 0.1364 0.9906 0.0000
vn 0.0000 0.9906 0.1364
vn 0.0000 0.9906 -0.1364
vn -0.4515 0.8922 0.0000
vn -0.6600 0.7513 0.0000
vn 0.0000 0.8923 -0.4515
vn -0.1364 0.9906 0.0000
vn 0.0000 0.7513 -0.6600
vn 0.4515 0.8922 0.0000
vn 0.6600 0.7513 -0.0000
vn 0.0000 0.8923 0.4515
vn 0.0000 0.7513 0.6600
vn -0.0000 0.8077 0.5896
vn 0.0000 0.0499 -0.9988
vn 0.0000 0.0499 0.9988
vn 0.4749 0.8800 0.0000
vn 0.0000 0.8800 0.4749
vn -0.4749 0.8800 0.0000
vn 0.0000 0.8800 -0.4749
vn -0.8401 0.5424 0.0000
vn 0.0000 0.5424 -0.8401
vn 0.8401 0.5424 0.0000
vn 0.0000 0.5424 0.8401
vn -0.0445 0.9990 0.0000
vn 0.0000 0.9990 0.0445
vn -0.0445 -0.9990 0.0000
vn 0.0000 -0.9990 0.0445
vn 0.0445 -0.9990 0.0000
vn 0.0000 0.9990 -0.0445
vn 0.0000 -0.9990 -0.0445
vn 0.0445 0.9990 0.0000
vn -0.0325 0.9995 0.0000
vn 0.0325 0.9995 0.0000
vn 0.0000 0.9995 -0.0325
vn 0.0000 -0.9995 -0.0325
vn 0.0000 -0.9995 0.0325
vn -0.0325 -0.9995 0.0000
vn 0.0000 0.9995 0.0325
vn 0.0325 -0.9995 0.0000
usemtl Base
s off
f 97/1/1 32/2/1 25/3/1 92/4/1
f 12/5/2 26/6/2 27/7/2 13/8/2
f 2/9/3 4/10/3 3/11/3 1/12/3
f 24/13/4 31/14/4 30/15/4 23/16/4
f 10/17/5 24/18/5 23/19/5 8/20/5
f 26/21/6 19/22/6 20/23/6 27/24/6
f 21/25/7 6/26/7 9/27/7 22/28/7
f 31/29/8 17/30/8 15/31/8 30/32/8
f 6/33/9 14/34/9 16/35/9 9/36/9
f 107/37/10 90/38/10 94/39/10 109/40/10
f 14/41/11 28/42/11 29/43/11 16/44/11
f 28/45/12 21/46/12 22/47/12 29/48/12
f 7/49/13 12/50/13 13/51/13 5/52/13
f 17/53/14 10/54/14 8/55/14 15/56/14
f 14/34/15 6/33/15 5/52/15 13/51/15
f 29/48/16 22/47/16 23/16/16 30/15/16
f 16/44/17 29/43/17 30/57/17 15/58/17
f 33/59/18 34/60/18 12/50/18 7/49/18
f 18/61/19 11/62/19 10/54/19 17/53/19
f 9/36/20 16/35/20 15/63/20 8/64/20
f 34/60/21 35/65/21 26/6/21 12/5/21
f 32/2/22 18/61/22 17/30/22 31/29/22
f 28/42/23 14/41/23 13/8/23 27/7/23
f 35/65/24 36/66/24 19/22/24 26/21/24
f 25/3/25 32/2/25 31/14/25 24/13/25
f 21/46/26 28/45/26 27/24/26 20/23/26
f 36/66/27 33/59/27 7/67/27 19/68/27
f 6/26/28 21/25/28 20/69/28 5/70/28
f 11/71/29 25/3/29 24/18/29 10/17/29
f 22/28/30 9/27/30 8/72/30 23/73/30
f 19/68/31 7/67/31 5/70/31 20/69/31
f 42/74/32 50/75/32 51/76/32 43/77/32
f 52/78/33 48/79/33 36/66/33 35/65/33
f 44/80/33 52/78/33 35/65/33 34/60/33
f 40/81/34 45/82/34 68/83/34 62/84/34
f 39/85/35 42/86/35 43/87/35 37/88/35
f 50/89/36 46/90/36 47/91/36 51/92/36
f 38/93/33 44/80/33 34/60/33 33/59/33
f 45/82/37 49/94/37 66/95/37 68/83/37
f 48/79/33 38/93/33 33/59/33 36/66/33
f 49/94/38 41/96/38 64/97/38 66/95/38
f 40/81/39 41/96/39 42/86/39 39/85/39
f 44/80/40 38/93/40 37/88/40 43/87/40
f 41/96/41 49/94/41 50/75/41 42/74/41
f 52/78/42 44/80/42 43/77/42 51/76/42
f 49/94/43 45/82/43 46/90/43 50/89/43
f 48/79/44 52/78/44 51/92/44 47/91/44
f 45/82/45 40/81/45 39/98/45 46/99/45
f 38/93/46 48/79/46 47/100/46 37/101/46
f 46/99/47 39/98/47 37/101/47 47/100/47
f 78/102/48 83/103/48 84/104/48 79/105/48
f 41/96/49 40/81/49 62/84/49 64/97/49
f 71/106/50 74/107/50 75/108/50 69/109/50
f 74/110/51 78/111/51 79/112/51 75/113/51
f 55/114/52 54/115/52 70/116/52 76/117/52
f 57/118/53 55/114/53 76/117/53 80/119/53
f 59/120/54 57/118/54 80/119/54 85/121/54
f 54/115/55 59/120/55 85/121/55 70/116/55
f 77/122/56 81/123/56 82/124/56
f 82/124/57 81/123/57 72/125/57
f 73/126/58 81/123/58 77/122/58
f 72/125/59 73/126/59 74/107/59 71/106/59
f 76/117/60 70/116/60 69/109/60 75/108/60
f 73/126/61 77/122/61 78/111/61 74/110/61
f 72/125/62 81/123/62 73/126/62
f 80/119/63 76/117/63 75/113/63 79/112/63
f 77/122/64 82/124/64 83/103/64 78/102/64
f 85/121/65 80/119/65 79/105/65 84/104/65
f 82/124/66 72/125/66 71/127/66 83/128/66
f 70/116/67 85/121/67 84/129/67 69/130/67
f 83/128/68 71/127/68 69/130/68 84/129/68
f 113/131/1 96/132/1 93/133/1 110/134/1
f 109/40/69 94/39/69 96/132/69 113/131/69
f 110/134/70 93/133/70 90/135/70 107/136/70
f 1/137/10 106/138/10 108/139/10 2/140/10
f 4/10/1 112/141/1 111/142/1 3/11/1
f 95/143/69 18/61/69 32/2/69 97/1/69
f 92/4/70 25/3/70 11/71/70 91/144/70
f 2/140/69 108/139/69 112/141/69 4/10/69
f 91/145/10 11/62/10 18/61/10 95/143/10
f 3/11/70 111/142/70 106/146/70 1/147/70
usemtl Détails
f 89/148/70 86/149/70 87/150/70 88/151/70
f 56/152/33 58/153/33 65/154/33 63/155/33
f 58/156/33 60/157/33 67/158/33 65/159/33
f 53/160/33 56/161/33 63/162/33 61/163/33
f 60/164/33 53/165/33 61/166/33 67/167/33
f 61/163/71 63/162/71 64/97/71 62/84/71
f 63/155/72 65/154/72 66/95/72 64/97/72
f 65/159/73 67/158/73 68/83/73 66/95/73
f 67/167/74 61/166/74 62/84/74 68/83/74
f 54/115/75 55/114/75 56/161/75 53/160/75
f 55/114/76 57/118/76 58/153/76 56/152/76
f 57/118/77 59/120/77 60/157/77 58/156/77
f 59/120/78 54/115/78 53/165/78 60/164/78
f 93/133/79 96/132/79 102/168/79 99/169/79
f 96/132/80 94/39/80 104/170/80 102/168/80
f 91/145/81 95/143/81 105/171/81 101/172/81
f 92/4/82 91/144/82 101/173/82 98/174/82
f 98/174/70 101/173/70 100/175/70 99/169/70
f 97/1/83 92/4/83 98/174/83 103/176/83
f 90/135/84 93/133/84 99/169/84 100/175/84
f 103/176/1 98/174/1 99/169/1 102/168/1
f 101/172/10 105/171/10 104/170/10 100/177/10
f 105/171/69 103/176/69 102/168/69 104/170/69
f 95/143/85 97/1/85 103/176/85 105/171/85
f 94/39/86 90/38/86 100/177/86 104/170/86
f 111/142/87 112/141/87 116/178/87 88/151/87
f 108/139/88 106/138/88 87/179/88 114/180/88
f 106/146/89 111/142/89 88/151/89 87/150/89
f 109/40/90 113/131/90 117/181/90 115/182/90
f 110/134/91 107/136/91 86/149/91 89/148/91
f 86/183/10 115/182/10 114/180/10 87/179/10
f 107/37/92 109/40/92 115/182/92 86/183/92
f 115/182/69 117/181/69 116/178/69 114/180/69
f 112/141/93 108/139/93 114/180/93 116/178/93
f 117/181/1 89/148/1 88/151/1 116/178/1
f 113/131/94 110/134/94 89/148/94 117/181/94
