# Blender v2.83.0 OBJ File: ''
# www.blender.org
mtllib Ramp.mtl
o Cube.001
v 0.500000 -0.500000 0.500000
v 0.500000 0.500000 0.500000
v -0.500000 0.500000 0.500000
v -0.500000 -0.500000 0.500000
v -0.500000 -0.500000 -0.500000
v 0.500000 -0.500000 -0.500000
v 0.150000 -0.500000 0.500000
v 0.150000 0.500000 0.500000
v 0.150000 -0.500000 -0.500000
v -0.150000 -0.500000 0.500000
v -0.150000 0.500000 0.500000
v -0.150000 -0.500000 -0.500000
vt 0.375000 0.917078
vt 0.625000 0.917078
vt 0.625000 1.000000
vt 0.375000 1.000000
vt 0.375000 0.000000
vt 0.625000 0.000000
vt 0.375000 0.250000
vt 0.290844 0.500000
vt 0.375000 0.500000
vt 0.375000 0.750000
vt 0.290844 0.750000
vt 0.625000 0.750000
vt 0.375000 0.415844
vt 0.625000 0.497533
vt 0.625000 0.834156
vt 0.375000 0.834156
vt 0.125000 0.500000
vt 0.207922 0.500000
vt 0.207922 0.750000
vt 0.125000 0.750000
vt 0.625000 0.248767
vt 0.375000 0.332922
vn 0.0000 -0.0000 1.0000
vn -1.0000 0.0000 0.0000
vn 0.0000 -1.0000 -0.0000
vn 1.0000 0.0000 0.0000
vn 0.0000 0.7071 -0.7071
usemtl Base
s 1
f 10/1/1 11/2/1 3/3/1 4/4/1
f 4/5/2 3/6/2 5/7/2
f 9/8/3 6/9/3 1/10/3 7/11/3
f 6/9/4 2/12/4 1/10/4
f 9/13/5 8/14/5 2/12/5 6/9/5
f 1/10/1 2/12/1 8/15/1 7/16/1
f 5/17/3 12/18/3 10/19/3 4/20/3
f 5/7/5 3/6/5 11/21/5 12/22/5
usemtl Mat
f 12/22/5 11/21/5 8/14/5 9/13/5
f 12/18/3 9/8/3 7/11/3 10/19/3
f 7/16/1 8/15/1 11/2/1 10/1/1
